<?xml version="1.0" encoding="UTF-8" standalone="no"?>
<svg
   xmlns:dc="http://purl.org/dc/elements/1.1/"
   xmlns:cc="http://creativecommons.org/ns#"
   xmlns:rdf="http://www.w3.org/1999/02/22-rdf-syntax-ns#"
   xmlns:svg="http://www.w3.org/2000/svg"
   xmlns="http://www.w3.org/2000/svg"
   viewBox="0 0 816 1056"
   height="1056"
   width="816"
   xml:space="preserve"
   id="svg2"
   version="1.1"><metadata
     id="metadata8"><rdf:RDF><cc:Work
         rdf:about=""><dc:format>image/svg+xml</dc:format><dc:type
           rdf:resource="http://purl.org/dc/dcmitype/StillImage" /></cc:Work></rdf:RDF></metadata><defs
     id="defs6" /><g
     transform="matrix(1.3333333,0,0,1.3333333,0,2.64e-5)"
     id="g10"><g
       transform="scale(0.75)"
       id="g12"><path
         id="path14"
         style="fill:#ffffff;fill-opacity:1;fill-rule:nonzero;stroke:none"
         d="M 0,0 H 816 V 1056 H 0 Z" /></g><g
       transform="matrix(0.75,0,0,0.75,72,72)"
       id="g16"><text
         id="text20"
         style="font-variant:normal;font-weight:normal;font-size:26.66666603px;font-family:ArialMT;-inkscape-font-specification:ArialMT;writing-mode:lr-tb;fill:#000000;fill-opacity:1;fill-rule:nonzero;stroke:none"
         transform="translate(0,51.679688)"><tspan
           id="tspan18"
           y="0"
           x="0 19.25029 32.578415 47.403351 56.28009 63.68605 71.09201 85.916946 93.322906 108.14784 117.02458 131.84952 145.17764 152.5836 158.50577 173.3307 188.15564 201.48376 208.88972 234.04916 239.97133 247.37729 262.20221 269.60815 288.85846 303.68341 309.60559 318.48233 325.88831 345.13861 354.01535 367.34348 382.1684 391.04514">User Interactions With Hair Dryer:</tspan></text>
</g><g
       transform="matrix(0.75,0,0,0.75,72,124.44775)"
       id="g22"><text
         id="text26"
         style="font-variant:normal;font-weight:normal;font-size:18.66666603px;font-family:ArialMT;-inkscape-font-specification:ArialMT;writing-mode:lr-tb;fill:#434343;fill-opacity:1;fill-rule:nonzero;stroke:none"
         transform="translate(0,30.842448)"><tspan
           id="tspan24"
           y="0"
           x="0 14.511429 24.887146 34.215271 44.590988 50.803665 60.13179 70.507507 75.690811 79.835632 90.211349 100.58707">Observations</tspan></text>
</g><g
       transform="matrix(0.75,0,0,0.75,72,156.96118)"
       id="g28"><text
         id="text32"
         style="font-variant:normal;font-weight:normal;font-size:14.66666698px;font-family:Lato;-inkscape-font-specification:Lato-Regular;writing-mode:lr-tb;fill:#000000;fill-opacity:1;fill-rule:nonzero;stroke:none"
         transform="translate(0,14.476)"><tspan
           id="tspan30"
           y="0"
           x="0 10.698929 17.059662 24.739441 30.645844 33.474472 41.974991">User 1:</tspan></text>
</g><g
       transform="matrix(0.75,0,0,0.75,72,172.14117)"
       id="g34"><text
         id="text38"
         style="font-variant:normal;font-weight:normal;font-size:14.66666698px;font-family:ArialMT;-inkscape-font-specification:ArialMT;writing-mode:lr-tb;fill:#000000;fill-opacity:1;fill-rule:nonzero;stroke:none"
         transform="translate(24,14.476)"><tspan
           id="tspan36"
           y="0"
           x="0">●</tspan></text>
<text
         id="text42"
         style="font-variant:normal;font-weight:normal;font-size:14.66666698px;font-family:Lato;-inkscape-font-specification:Lato-Regular;writing-mode:lr-tb;fill:#000000;fill-opacity:1;fill-rule:nonzero;stroke:none"
         transform="translate(48,14.476)"><tspan
           id="tspan40"
           y="0"
           x="0 8.9548645 12.706818 20.855591 28.344849 35.834106 43.513885 51.706635 54.535263 60.001984 68.150757 75.830536 78.659164 86.807938 94.238571 97.990524 103.89693 106.72556 114.9183 120.82471 128.13794 135.81772 141.72412 144.55275 148.3047 156.45348 161.9202 170.06897 172.8976 180.32823 188.47701 191.30563 198.98541 202.73737 210.41714 217.26154 222.72826 228.63466 232.38661 239.231 246.66164 250.41359 253.24222 261.39099 269.53976 275.00647 278.75842 286.4382 291.90491 294.73352 298.48547 310.51813 322.55078 330.23056 338.42331 342.17526 349.6059 355.07263 362.75241 366.50436">Plugged the hair dryer into an electrical outlet immediately</tspan></text>
</g><g
       transform="matrix(0.75,0,0,0.75,72,187.32118)"
       id="g44"><text
         id="text48"
         style="font-variant:normal;font-weight:normal;font-size:14.66666698px;font-family:ArialMT;-inkscape-font-specification:ArialMT;writing-mode:lr-tb;fill:#000000;fill-opacity:1;fill-rule:nonzero;stroke:none"
         transform="translate(24,14.476)"><tspan
           id="tspan46"
           y="0"
           x="0">●</tspan></text>
<text
         id="text52"
         style="font-variant:normal;font-weight:normal;font-size:14.66666698px;font-family:Lato;-inkscape-font-specification:Lato-Regular;writing-mode:lr-tb;fill:#000000;fill-opacity:1;fill-rule:nonzero;stroke:none"
         transform="translate(48,14.476)"><tspan
           id="tspan50"
           y="0"
           x="0 10.039413 18.188187 26.33696 30.088913 38.281662 45.902435 49.009521 54.476242 57.304871 64.794128 72.473907 77.940628 80.769257 86.235977 94.38475 102.06453 104.89316 112.98331 121.13208 132.35863 140.03841 145.94481 148.77344 154.24016 162.38893 165.21756 173.92326 182.07204 193.29858 196.12721 201.59393 209.74271 212.57133 218.03806 226.18683 233.86661 236.69524 244.84401 252.27464 256.02661 261.93301 264.76166 272.95441 278.86081 286.17404 293.85382 299.76022 302.58887 310.0195 318.16827 326.36102 329.18964 336.62027 343.46466 350.30905 358.45782 364.36423 372.55698 376.30893 384.4577 391.94696 395.69891 403.20282 406.03143 414.12158 420.02798 427.70776 434.06848 440.4292 448.10898 456.30173 459.13037 466.63428 474.06491 479.97131 483.72327 491.87204 500.02081 506.38153 509.21014 517.40289 525.55164 531.01837 536.48511 544.63391 552.78271 559.14343 561.97205">Couldn’t get the power to ﬂow to the hair dryer and accordingly pressed various buttons /</tspan></text>
</g><g
       transform="matrix(0.75,0,0,0.75,72,202.50119)"
       id="g54"><text
         id="text58"
         style="font-variant:normal;font-weight:normal;font-size:14.66666698px;font-family:Lato;-inkscape-font-specification:Lato-Regular;writing-mode:lr-tb;fill:#000000;fill-opacity:1;fill-rule:nonzero;stroke:none"
         transform="translate(48,14.476)"><tspan
           id="tspan56"
           y="0"
           x="0 6.360733 17.58728 21.339233 26.805954 33.650345 41.799118 49.478897 55.83963 58.946716 61.775345 75.258926 82.68956 90.882309 98.562088 101.39072 108.23511 116.38388 124.53265 129.47176 137.62053 143.98126 151.66104 159.85379 162.68242 169.9222 177.30885 185.399 191.3054 198.98518 205.34592 211.70665 215.4586 223.60738 231.75615 238.11688">switches. Made confused expressions.</tspan></text>
</g><g
       transform="matrix(0.75,0,0,0.75,72,217.68118)"
       id="g60"><text
         id="text64"
         style="font-variant:normal;font-weight:normal;font-size:14.66666698px;font-family:ArialMT;-inkscape-font-specification:ArialMT;writing-mode:lr-tb;fill:#000000;fill-opacity:1;fill-rule:nonzero;stroke:none"
         transform="translate(24,14.476)"><tspan
           id="tspan62"
           y="0"
           x="0">●</tspan></text>
<text
         id="text68"
         style="font-variant:normal;font-weight:normal;font-size:14.66666698px;font-family:Lato;-inkscape-font-specification:Lato-Regular;writing-mode:lr-tb;fill:#000000;fill-opacity:1;fill-rule:nonzero;stroke:none"
         transform="translate(48,14.476)"><tspan
           id="tspan66"
           y="0"
           x="0 8.6470795 16.795853 24.284958 31.788864 34.617493 40.084213 48.232986 55.912766 64.061539 66.890167 72.79657 80.476349 87.906982 91.658936 95.410889 102.18199 109.86177 118.05452 120.88315 126.34987 134.49864 142.17842 148.08482 155.7646 158.59323 169.81978 177.25041 183.61115 186.43977 193.87041 196.69904 202.60544 210.28522 218.47797 221.30659 229.49934 237.64812 243.11484 248.58156 256.73035 264.87912 267.70776 275.85654 284.00531 286.83392 292.30066 300.44943 308.12921 310.95782 319.04797 322.79993 330.9487">They then realized there was a red button on the plug</tspan></text>
</g><g
       transform="matrix(0.75,0,0,0.75,72,232.86118)"
       id="g70"><text
         id="text74"
         style="font-variant:normal;font-weight:normal;font-size:14.66666698px;font-family:ArialMT;-inkscape-font-specification:ArialMT;writing-mode:lr-tb;fill:#000000;fill-opacity:1;fill-rule:nonzero;stroke:none"
         transform="translate(24,14.476)"><tspan
           id="tspan72"
           y="0"
           x="0">●</tspan></text>
<text
         id="text78"
         style="font-variant:normal;font-weight:normal;font-size:14.66666698px;font-family:Lato;-inkscape-font-specification:Lato-Regular;writing-mode:lr-tb;fill:#000000;fill-opacity:1;fill-rule:nonzero;stroke:none"
         transform="translate(48,14.476)"><tspan
           id="tspan76"
           y="0"
           x="0 8.9548645 14.861267 22.541046 28.901779 35.262512 42.942291 51.13504 53.963669 59.430389 67.579163 75.258942 78.08757 84.448303 95.67485 99.426804 104.89352 111.73792 119.88669 127.56647 133.9272 136.75583 140.50778 148.65656 151.48518 158.98909 166.41972 172.32613 176.07808 184.22685 192.37563 198.73636 201.56499 209.75774 213.50969 219.41609 227.09587 233.94026 239.40698 243.15894 251.30771 259.45648 265.8172 268.64581 279.87238 288.02115 291.7731 295.52505 303.20483 306.03345 313.46408 317.21603 329.24866 333.00061 341.14938 348.63864 351.46729 356.93402 365.08279 372.76257 375.59119 383.78394 389.69034 397.00357 404.68335 410.58975 413.4184 420.84903 426.31573 429.14435 434.61108 442.75986 450.43964 454.19159 460.09799 462.92664 471.07541 478.75519 486.18582">Pressed the switches in various directions while aiming the dryer at their head</tspan></text>
</g><g
       transform="matrix(0.75,0,0,0.75,72,248.0412)"
       id="g80"><text
         id="text84"
         style="font-variant:normal;font-weight:normal;font-size:14.66666698px;font-family:Lato;-inkscape-font-specification:Lato-Regular;writing-mode:lr-tb;fill:#000000;fill-opacity:1;fill-rule:nonzero;stroke:none"
         transform="translate(0,14.476)"><tspan
           id="tspan82"
           y="0"
           x="0 10.698929 17.059662 24.739441 30.645844 33.474472 41.974991 44.803619 56.030167 63.4608 69.821533 72.650162 79.010895 84.477615 92.626389 99.470779 107.15056 109.97919 118.12796 126.27673 129.10536 134.57208 142.72086 150.40063 153.22926 159.13567 166.81544 175.00819 177.83682 186.02957 194.17834 199.64507 205.11179 213.26056 221.40933 224.23796 231.08235 239.23112 247.3799 254.22429 261.90405 267.81046 275.95923 278.78784 283.72693 291.8757 297.7821 300.61072 308.80347 316.95224 320.70419 326.1709 333.85068 336.67932 343.04004 351.18881 363.22144 370.90121 373.72986 379.19659 382.94855 394.9812 402.66098 405.48962 413.68237 421.83115 427.29785 430.12646 441.35303 448.78366 455.14441 457.97302 465.40366 473.59641 477.34836 485.02814 487.85675 493.32349 501.47226 504.3009 510.20731 517.88708 525.31775 529.0697 532.82166 539.59277 547.27258 550.1012 555.56793 563.71667 571.20581">User 1 was stuck on the red button concern for quite some time but was able to realize they</tspan></text>
</g><g
       transform="matrix(0.75,0,0,0.75,72,263.22119)"
       id="g86"><text
         id="text90"
         style="font-variant:normal;font-weight:normal;font-size:14.66666698px;font-family:Lato;-inkscape-font-specification:Lato-Regular;writing-mode:lr-tb;fill:#000000;fill-opacity:1;fill-rule:nonzero;stroke:none"
         transform="translate(0,14.476)"><tspan
           id="tspan88"
           y="0"
           x="0 8.1487732 15.828552 23.508331 31.70108 39.380859 47.573608 50.402237 55.868958 64.017731 66.846359 74.936508 80.842911 88.52269 94.883423 101.24416 104.07278 107.82474 113.29146 116.12009 123.55072 128.48982 133.95654 141.63632 147.54272 150.37135 155.99908 163.42972 171.57849 179.77124 187.92001 199.95265 203.70461 211.20851 214.03714 217.78909 225.93787 231.40459 239.08437 244.7121 252.14273 258.98712 264.45386 268.20581 276.35458 283.84384 286.67249 297.89905 301.651 307.11774 315.26651 318.09515 325.58426 332.89749 340.57727 346.48367 353.98758 356.81622 365.00897 373.15775 378.62445 384.09119 392.23996 400.38873 403.21735 411.36612 419.51489 422.34351 427.81024 435.95901 443.63879 446.46741 454.66016 460.56656 467.87979 475.55957 480.49799">needed to press it after randomly interacting with every button on the dryer.</tspan></text>
</g><g
       transform="matrix(0.75,0,0,0.75,72,293.58118)"
       id="g92"><text
         id="text96"
         style="font-variant:normal;font-weight:normal;font-size:14.66666698px;font-family:Lato;-inkscape-font-specification:Lato-Regular;writing-mode:lr-tb;fill:#000000;fill-opacity:1;fill-rule:nonzero;stroke:none"
         transform="translate(0,14.476)"><tspan
           id="tspan94"
           y="0"
           x="0 10.698929 17.059662 24.739441 30.645844 33.474472 41.974991">User 2:</tspan></text>
</g><g
       transform="matrix(0.75,0,0,0.75,72,308.76117)"
       id="g98"><text
         id="text102"
         style="font-variant:normal;font-weight:normal;font-size:14.66666698px;font-family:ArialMT;-inkscape-font-specification:ArialMT;writing-mode:lr-tb;fill:#000000;fill-opacity:1;fill-rule:nonzero;stroke:none"
         transform="translate(24,14.476)"><tspan
           id="tspan100"
           y="0"
           x="0">●</tspan></text>
<text
         id="text106"
         style="font-variant:normal;font-weight:normal;font-size:14.66666698px;font-family:Lato;-inkscape-font-specification:Lato-Regular;writing-mode:lr-tb;fill:#000000;fill-opacity:1;fill-rule:nonzero;stroke:none"
         transform="translate(48,14.476)"><tspan
           id="tspan104"
           y="0"
           x="0 8.9548645 12.706818 20.855591 28.344849 35.834106 43.513885 51.706635 54.535263 60.001984 68.150757 75.830536 78.659164 86.851913 92.758316 100.07155 107.75133 113.65773 116.48636 120.23831 128.38708 133.85381 142.00258 144.83121 152.26184 160.41061 163.23924 170.91902 174.67097 182.35075 189.19514 194.66187 200.56827 204.32022 211.16461 218.59525 222.3472 225.17583 233.3246 241.47337 246.94009 250.69205 258.37183 263.83856 266.66718 274.09781 282.24658 290.43933 293.26794 297.0199 309.05255 321.08521 328.76498 336.95773 340.70969 348.14032 353.60706 361.28683 365.03879 372.54269 375.37134 383.46149 389.36789 397.04767 403.40839 409.7691 417.44888 425.64163 428.47028 433.93701 442.08578 449.76556 452.59418 458.50058 466.18036 474.37311 477.20172 485.39447 493.54324 499.00995 504.47668 512.62549">Plugged the dryer into an electrical outlet and immediately pressed the red button</tspan></text>
</g><g
       transform="matrix(0.75,0,0,0.75,72,323.94116)"
       id="g108"><text
         id="text112"
         style="font-variant:normal;font-weight:normal;font-size:14.66666698px;font-family:ArialMT;-inkscape-font-specification:ArialMT;writing-mode:lr-tb;fill:#000000;fill-opacity:1;fill-rule:nonzero;stroke:none"
         transform="translate(24,14.476)"><tspan
           id="tspan110"
           y="0"
           x="0">●</tspan></text>
<text
         id="text116"
         style="font-variant:normal;font-weight:normal;font-size:14.66666698px;font-family:Lato;-inkscape-font-specification:Lato-Regular;writing-mode:lr-tb;fill:#000000;fill-opacity:1;fill-rule:nonzero;stroke:none"
         transform="translate(48,14.476)"><tspan
           id="tspan114"
           y="0"
           x="0 7.4737396 15.622513 21.528915 29.677689 37.357468 45.550217 48.378845 56.571594 64.720367 70.187088 78.335861 81.16449 87.525223 98.75177 102.50372 107.97044 114.81483 122.96361 130.64339 137.00412 139.83275 145.29947 153.44824 156.27687 164.36702 172.51579 183.74234 191.42212 197.32852 200.15715 208.65767 211.4863 218.91693 227.0657 235.25845 238.08708 246.17723 252.08363 259.76343 266.12415 272.48486 280.16464 288.35739 291.18604 296.65277 304.80154 312.48132 315.30994 322.15433 330.3031 338.45187 342.20383 345.03247 352.4631 356.21506 362.12146 364.95007 373.14282 381.2916 386.7583 392.22504 400.37381 408.52258 411.3512 418.78183 421.61047 429.75925 437.90802 449.94067 458.13342 465.8132 471.7196 474.54822 482.69699 487.63611 490.46472 495.93146 499.68341 511.71606 519.39587 525.75659 528.58521 539.81177 547.96057 551.71252 555.46448">Turned both switches to power 3 and pressed the cool air button a number of times while</tspan></text>
</g><g
       transform="matrix(0.75,0,0,0.75,72,339.12119)"
       id="g118"><text
         id="text122"
         style="font-variant:normal;font-weight:normal;font-size:14.66666698px;font-family:Lato;-inkscape-font-specification:Lato-Regular;writing-mode:lr-tb;fill:#000000;fill-opacity:1;fill-rule:nonzero;stroke:none"
         transform="translate(48,14.476)"><tspan
           id="tspan120"
           y="0"
           x="0 7.4306335 11.182587 23.215225 26.967178 35.115952 42.605209 45.433838 50.900558 59.049332 66.729111 69.557739 77.750488 83.656891 90.970123 98.649902 104.5563 107.38493 114.81557 120.28229 123.11092 128.57764 136.72641 144.40619 148.15814 154.06454 156.89317 165.04195 172.72173 180.15236">aiming the dryer at their head</tspan></text>
</g><g
       transform="matrix(0.75,0,0,0.75,72,354.30118)"
       id="g124"><text
         id="text128"
         style="font-variant:normal;font-weight:normal;font-size:14.66666698px;font-family:ArialMT;-inkscape-font-specification:ArialMT;writing-mode:lr-tb;fill:#000000;fill-opacity:1;fill-rule:nonzero;stroke:none"
         transform="translate(24,14.476)"><tspan
           id="tspan126"
           y="0"
           x="0">●</tspan></text>
<text
         id="text132"
         style="font-variant:normal;font-weight:normal;font-size:14.66666698px;font-family:Lato;-inkscape-font-specification:Lato-Regular;writing-mode:lr-tb;fill:#000000;fill-opacity:1;fill-rule:nonzero;stroke:none"
         transform="translate(48,14.476)"><tspan
           id="tspan130"
           y="0"
           x="0 9.1154633 16.795242 22.701645 30.205551 33.03418 39.878571 48.027344 56.176117 64.530075 72.722824 80.402603 88.551376 94.018097 96.846725 105.03947 112.71925 124.75189 132.43167 139.8623 148.01108 156.15985">Very conﬁdent demeanor</tspan></text>
</g><g
       transform="matrix(0.75,0,0,0.75,72,369.48117)"
       id="g134"><text
         id="text138"
         style="font-variant:normal;font-weight:normal;font-size:14.66666698px;font-family:Lato;-inkscape-font-specification:Lato-Regular;writing-mode:lr-tb;fill:#000000;fill-opacity:1;fill-rule:nonzero;stroke:none"
         transform="translate(0,14.476)"><tspan
           id="tspan136"
           y="0"
           x="0 4.4994202 12.648193 15.476822 21.383224 29.063004 37.768707 45.448486 52.292877 57.759598 61.511551 69.660324 77.809097 80.916183 83.744812 90.589203 98.737976 110.77061 118.86076 126.2914 132.1978 139.87758 148.07033 150.89896 156.36568 164.51445 167.34308 175.53583 183.6846 189.15132 197.30009 200.12872 208.2775 213.74422 221.89299 229.57277 235.47917 238.3078 246.45657 252.81731 260.49707 266.40347 272.76422 275.87131 278.69995 286.84872 293.20947 300.88925 306.79565 309.62427 318.12479 320.95343 332.17999 339.61063 345.97137 348.79999 356.11322 363.793 369.6994 377.20331 380.03192 386.87631 394.55609 400.46249 405.9292 413.35983 417.11179 425.26056 428.08917 436.23795 441.17706 444.00568 451.43631 455.18826 458.94022 461.76886 469.91763 473.66959 480.03033 482.85895 489.21967 496.89944 500.6514 508.33118 515.17554 520.64227 524.39423 532.54297 540.69177 547.05249 549.8811 561.10767 569.25647 573.00842 576.76038 584.44019 587.2688 595.4176 601.77832 605.53027 613.67908">In reﬂection, compared to both other users, user 2 was very certain of all his selections while using</tspan></text>
</g><g
       transform="matrix(0.75,0,0,0.75,72,384.66119)"
       id="g140"><text
         id="text144"
         style="font-variant:normal;font-weight:normal;font-size:14.66666698px;font-family:Lato;-inkscape-font-specification:Lato-Regular;writing-mode:lr-tb;fill:#000000;fill-opacity:1;fill-rule:nonzero;stroke:none"
         transform="translate(0,14.476)"><tspan
           id="tspan142"
           y="0"
           x="0 5.4667206 13.615494 21.295273 24.123901 32.272675 39.703308 43.455261 49.361664 52.190292 60.383041 66.289444 73.602676 81.282455 86.220856 89.327942 92.15657 103.23656 110.91634 113.74496 121.83511 127.74152 135.4213 141.78203 148.14276 155.82254 164.01529 166.84392 172.31064 180.45941 188.13919 190.96782 199.16057 207.30934 212.77606 218.24278 226.39156 234.54033 237.36896 241.12091 253.15355 265.18619 272.86597 281.05872 284.81067 292.2413 297.70801 305.38779 309.13974 315.67566 318.78275 321.61139 332.83795 340.98672 344.73868 351.58307 359.73184 362.56049 368.02722 376.17599 383.85577 389.76218 397.44196 405.44403 412.94794 415.77655 423.8667 431.29733 437.65808 444.0188 451.69858 459.89133 462.71997 468.18671 476.33548 484.01526 486.84387 494.52365 498.2756 505.95538 512.7998 518.26654 524.17297 527.92493 534.76929 542.19995 545.9519 548.78052 555.62488 563.77368 569.68005 575.58643 583.26624 591.41504 596.88177 599.71039 605.17712">the hair dryer. He pressed the button immediately, which thereby passed the electrical current to</tspan></text>
</g><g
       transform="matrix(0.75,0,0,0.75,72,399.84119)"
       id="g146"><text
         id="text150"
         style="font-variant:normal;font-weight:normal;font-size:14.66666698px;font-family:Lato;-inkscape-font-specification:Lato-Regular;writing-mode:lr-tb;fill:#000000;fill-opacity:1;fill-rule:nonzero;stroke:none"
         transform="translate(0,14.476)"><tspan
           id="tspan148"
           y="0"
           x="0 5.4667206 13.615494 21.295273 24.123901 32.31665 38.223053 45.536285 53.216064 58.154465">the dryer.</tspan></text>
</g><g
       transform="matrix(0.75,0,0,0.75,72,430.20117)"
       id="g152"><text
         id="text156"
         style="font-variant:normal;font-weight:normal;font-size:14.66666698px;font-family:Lato;-inkscape-font-specification:Lato-Regular;writing-mode:lr-tb;fill:#000000;fill-opacity:1;fill-rule:nonzero;stroke:none"
         transform="translate(0,14.476)"><tspan
           id="tspan154"
           y="0"
           x="0 10.698929 17.059662 24.739441 30.645844 33.474472 41.974991">User 3:</tspan></text>
</g><g
       transform="matrix(0.75,0,0,0.75,72,445.38116)"
       id="g158"><text
         id="text162"
         style="font-variant:normal;font-weight:normal;font-size:14.66666698px;font-family:ArialMT;-inkscape-font-specification:ArialMT;writing-mode:lr-tb;fill:#000000;fill-opacity:1;fill-rule:nonzero;stroke:none"
         transform="translate(24,14.476)"><tspan
           id="tspan160"
           y="0"
           x="0">●</tspan></text>
<text
         id="text166"
         style="font-variant:normal;font-weight:normal;font-size:14.66666698px;font-family:Lato;-inkscape-font-specification:Lato-Regular;writing-mode:lr-tb;fill:#000000;fill-opacity:1;fill-rule:nonzero;stroke:none"
         transform="translate(48,14.476)"><tspan
           id="tspan164"
           y="0"
           x="0 8.9548645 12.706818 20.855591 28.344849 35.834106 43.513885 51.706635 54.535263 62.728012 68.634415 75.947647 83.627426 89.533829 92.362457 96.11441 104.26318 109.7299 117.87868 120.70731 128.13794 136.28671 139.11534 146.79512 150.54707 158.22685 165.07124 170.53796 176.44437 180.19632 187.04071 194.47134 198.2233 201.05193 209.2007 217.34947 222.81619 226.56815 234.24792">Plugged dryer into an electrical outlet</tspan></text>
</g><g
       transform="matrix(0.75,0,0,0.75,72,460.56122)"
       id="g168"><text
         id="text172"
         style="font-variant:normal;font-weight:normal;font-size:14.66666698px;font-family:ArialMT;-inkscape-font-specification:ArialMT;writing-mode:lr-tb;fill:#000000;fill-opacity:1;fill-rule:nonzero;stroke:none"
         transform="translate(24,14.476)"><tspan
           id="tspan170"
           y="0"
           x="0">●</tspan></text>
<text
         id="text176"
         style="font-variant:normal;font-weight:normal;font-size:14.66666698px;font-family:Lato;-inkscape-font-specification:Lato-Regular;writing-mode:lr-tb;fill:#000000;fill-opacity:1;fill-rule:nonzero;stroke:none"
         transform="translate(48,14.476)"><tspan
           id="tspan174"
           y="0"
           x="0 7.4737396 13.380142 17.132095 24.811874 33.004623 35.833252 43.923401 49.829803 57.509583 63.870316 70.231049 73.983002 82.131775 89.621033 92.449661 97.916382 106.06516 113.74493 116.57356 123.41795 131.56673 139.7155 143.46745 146.29608 153.72672 157.47867 163.38507 166.2137 174.40645 182.55522 188.02194 193.48866 201.63744 209.78621 212.61484 220.04547 228.19424 236.38699 239.21562 245.12202 252.8018 260.99457 269.14334 276.82312 283.18384 288.65057 296.33035 304.5231 307.35175 315.50052 323.1803 326.93225 335.0224 337.85101 342.7901 348.6965 356.84528 368.87793 371.70654 379.85532 385.32202 393.47079 401.15057 407.05698 413.41772 416.24634 422.60706 426.35901 434.50778 441.35217 449.03195 451.8606 460.00937 468.15814 470.98676 478.41739 482.16934 488.07574 490.90436 502.13092 509.56155 515.9223 518.75092 525.59534 533.74414 545.77679 549.52875 557.67749">Tried pressing the cool air button and requested help from others since no air was coming</tspan></text>
</g><g
       transform="matrix(0.75,0,0,0.75,72,475.74121)"
       id="g178"><text
         id="text182"
         style="font-variant:normal;font-weight:normal;font-size:14.66666698px;font-family:Lato;-inkscape-font-specification:Lato-Regular;writing-mode:lr-tb;fill:#000000;fill-opacity:1;fill-rule:nonzero;stroke:none"
         transform="translate(48,14.476)"><tspan
           id="tspan180"
           y="0"
           x="0 8.1487732 16.297546">out</tspan></text>
</g><g
       transform="matrix(0.75,0,0,0.75,72,490.9212)"
       id="g184"><text
         id="text188"
         style="font-variant:normal;font-weight:normal;font-size:14.66666698px;font-family:ArialMT;-inkscape-font-specification:ArialMT;writing-mode:lr-tb;fill:#000000;fill-opacity:1;fill-rule:nonzero;stroke:none"
         transform="translate(24,14.476)"><tspan
           id="tspan186"
           y="0"
           x="0">●</tspan></text>
<text
         id="text192"
         style="font-variant:normal;font-weight:normal;font-size:14.66666698px;font-family:Lato;-inkscape-font-specification:Lato-Regular;writing-mode:lr-tb;fill:#000000;fill-opacity:1;fill-rule:nonzero;stroke:none"
         transform="translate(48,14.476)"><tspan
           id="tspan190"
           y="0"
           x="0 14.2892 21.719833 28.080566 30.909195 36.375916 44.524689 48.276642 56.469391 59.298019 64.76474 72.913513 80.402618 87.906525 90.735153 98.883926 106.31456 114.50731 117.33594 122.80266 130.95143 133.78006 141.87021 147.77661 155.45639 161.81712 168.17786 171.00648 176.47321 184.62198 192.30176 195.13039 201.03679 208.71657 216.90932 219.73795 227.93069 236.07947 241.54619 247.01291 255.16168 263.31046 266.1391 274.28787 282.43665 285.26526 290.73199 298.88077 306.56055 309.38916 316.23355 324.38232 330.28873">Was told they had to press the red button on the cord</tspan></text>
</g><g
       transform="matrix(0.75,0,0,0.75,72,506.1012)"
       id="g194"><text
         id="text198"
         style="font-variant:normal;font-weight:normal;font-size:14.66666698px;font-family:ArialMT;-inkscape-font-specification:ArialMT;writing-mode:lr-tb;fill:#000000;fill-opacity:1;fill-rule:nonzero;stroke:none"
         transform="translate(24,14.476)"><tspan
           id="tspan196"
           y="0"
           x="0">●</tspan></text>
<text
         id="text202"
         style="font-variant:normal;font-weight:normal;font-size:14.66666698px;font-family:Lato;-inkscape-font-specification:Lato-Regular;writing-mode:lr-tb;fill:#000000;fill-opacity:1;fill-rule:nonzero;stroke:none"
         transform="translate(48,14.476)"><tspan
           id="tspan200"
           y="0"
           x="0 14.2892 21.719833 28.080566 30.909195 37.269928 45.418701 53.61145 59.972183 67.651962 75.844711 83.993484 91.673264 99.822037 105.28876 109.04071 116.54462 119.37325 126.68648 134.36626 140.27266 147.77657 150.60519 157.44958 165.59836 173.74713 182.10109 190.29384 197.97362 206.12239 211.58911 214.41774 225.64429 229.39624 234.86296 243.01173 245.84036 251.30708 259.45587 267.13565 269.96429 278.11307 285.5437 289.29565 295.20206 298.0307 306.22345 312.12985 319.44308 327.12286 333.02927 335.85791 343.28854 351.43732 359.63007 362.45868 369.88931 373.64127 385.67389 393.35367 401.54642 404.37506 408.12701 413.59375 416.42236 423.853 429.3197 432.14832 437.61505 445.76382 453.4436 457.19556 463.10196 465.9306 474.07938 481.75916 489.18979 497.38254 500.21118 511.43774 519.58655 523.3385 527.09045">Was subsequently very conﬁdent with the hair dryer and aimed it at their head while</tspan></text>
</g><g
       transform="matrix(0.75,0,0,0.75,72,521.28119)"
       id="g204"><text
         id="text208"
         style="font-variant:normal;font-weight:normal;font-size:14.66666698px;font-family:Lato;-inkscape-font-specification:Lato-Regular;writing-mode:lr-tb;fill:#000000;fill-opacity:1;fill-rule:nonzero;stroke:none"
         transform="translate(48,14.476)"><tspan
           id="tspan206"
           y="0"
           x="0 8.0901489 13.996552 21.676331 28.037064 34.397797 38.14975 46.298523 53.787781 56.616409 62.08313 70.231903 77.911682 80.740311 87.101044 98.327591 102.07954 107.54626 114.39066 122.53943 130.21921 136.57994 139.40857 144.87529 153.02406 155.85269 163.94284 172.09161 183.31816 190.99794 196.90434 199.73297">pressing the switches to power 3</tspan></text>
</g><g
       transform="matrix(0.75,0,0,0.75,72,536.46118)"
       id="g210"><text
         id="text214"
         style="font-variant:normal;font-weight:normal;font-size:14.66666698px;font-family:Lato;-inkscape-font-specification:Lato-Regular;writing-mode:lr-tb;fill:#000000;fill-opacity:1;fill-rule:nonzero;stroke:none"
         transform="translate(0,14.476)"><tspan
           id="tspan212"
           y="0"
           x="0 10.698929 17.059662 24.739441 30.645844 33.474472 41.974991 44.803619 52.996368 56.748322 64.941071 67.769699 75.918472 84.067245 89.533966 92.362595 100.51137 108.66014 114.12686 117.87881 124.72321 132.40298 135.23161 140.69833 148.84711 156.27774 161.74446 164.57309 170.03981 178.18858 185.86836 191.77477 199.45454 202.28317 213.50972 221.1895 227.0959 234.77568 237.60431 245.79706 253.94583 259.41254 264.87927 273.02805 281.17682 287.53754 290.36615 298.51492 306.6637 309.49231 314.95905 323.10782 330.7876 333.61621 341.70636 349.85513 361.08167 368.76144 374.66785 377.49646 384.34085 392.48962 398.39603 406.58878 409.69586 412.52448 421.17157 429.32034 436.80945 444.31335 447.14197 459.17462 466.8544 472.7608 480.44058 484.19254 491.69644 494.52509 502.61523 508.52164 516.20142 522.56213 528.92285 536.60266 544.79541 547.62402 553.09076 561.2395 568.91931 571.74792 579.94067 588.08948 593.55621 599.02295 607.17175 615.32056">User 3 did not notice that there were buttons on the power cord. They merely pressed the buttons</tspan></text>
</g><g
       transform="matrix(0.75,0,0,0.75,72,551.64117)"
       id="g216"><text
         id="text220"
         style="font-variant:normal;font-weight:normal;font-size:14.66666698px;font-family:Lato;-inkscape-font-specification:Lato-Regular;writing-mode:lr-tb;fill:#000000;fill-opacity:1;fill-rule:nonzero;stroke:none"
         transform="translate(0,14.476)"><tspan
           id="tspan218"
           y="0"
           x="0 7.4306335 15.579407 23.772156 26.600784 32.961517 44.188065 47.940018 53.406738 60.251129 68.399902 76.079681 82.440414 85.269043 93.417816 101.56659 104.39522 109.86194 118.01071 125.69049 128.51912 136.66789 144.09853 147.85048 153.75688 156.58551 164.77826 170.68466 177.99789 185.67767 191.58408 194.69116 201.0519 203.88052 212.0293 219.45993 227.6087 235.80145 239.55341 247.23318">and switches on the hair dryer’s handle.</tspan></text>
</g><g
       transform="matrix(0.75,0,0,0.75,72,582.00122)"
       id="g222"><text
         id="text226"
         style="font-variant:normal;font-weight:normal;font-size:18.66666603px;font-family:ArialMT;-inkscape-font-specification:ArialMT;writing-mode:lr-tb;fill:#434343;fill-opacity:1;fill-rule:nonzero;stroke:none"
         transform="translate(0,38.84245)"><tspan
           id="tspan224"
           y="0"
           x="0 12.443573 22.81929 32.147415 37.330719 43.543396 47.688217 58.063934 63.247238 73.622955 79.835632 90.211349 99.539474 104.72278 108.8676 119.24332 129.61903 134.80234 138.94716 149.32288 154.50618 164.8819 171.09457 180.4227 184.56752 194.94324 208.41618">Post-interaction interview:</tspan></text>
</g><g
       transform="matrix(0.75,0,0,0.75,72,620.51459)"
       id="g228"><text
         id="text232"
         style="font-variant:normal;font-weight:bold;font-size:14.66666698px;font-family:Lato;-inkscape-font-specification:Lato-Bold;writing-mode:lr-tb;fill:#000000;fill-opacity:1;fill-rule:nonzero;stroke:none"
         transform="translate(0,14.476)"><tspan
           id="tspan230"
           y="0"
           x="0 8.5005188 11.798141 17.455399 28.535385 36.867355 48.460312 51.28894 63.629349 71.961319 78.952271 87.284241 90.112869 98.400879 104.38788 108.35968 116.69165 122.67865 125.50728 133.5901 141.92207 150.25404 161.847 165.8188 173.65247 182.00642 189.59094 197.42461 200.25323 208.60719 212.57899 220.93295 223.76158 231.33859 239.67056 248.00253 250.83116 259.16315 266.57159 274.14862 281.9823 284.81091 296.40387 300.37567 306.04758 314.37955 317.20819 322.8801 331.21207 339.04572 341.87433 345.84613 354.1781 359.85001 367.68365 373.67065 378.80762 386.48007 393.47101 401.30469 407.46756 410.2962 414.69302 425.09882 437.43921 440.26782 447.94028 456.27225 459.10089 466.49457 474.40884 482.69684 490.53052 496.51752 502.18942 505.48706 508.31567 516.3985 524.73047 533.06244 544.6554 547.48401 555.15649 557.98511 561.95691 565.92871 571.60059 577.27246 581.24426 589.07794 592.37555 595.20416 603.53613">1. How much prior knowledge did you have with the interface? (Am an expert, know a little, or</tspan></text>
</g><g
       transform="matrix(0.75,0,0,0.75,72,635.69464)"
       id="g234"><text
         id="text238"
         style="font-variant:normal;font-weight:bold;font-size:14.66666698px;font-family:Lato;-inkscape-font-specification:Lato-Bold;writing-mode:lr-tb;fill:#000000;fill-opacity:1;fill-rule:nonzero;stroke:none"
         transform="translate(0,14.476)"><tspan
           id="tspan236"
           y="0"
           x="0 8.0828247 16.414795 24.746765 36.339722 39.16835 47.50032 55.832291 61.504196 69.836166 73.807968 82.139938 89.724457">know nothing)</tspan></text>
</g><g
       transform="matrix(0.75,0,0,0.75,72,650.87463)"
       id="g240"><text
         id="text244"
         style="font-variant:normal;font-weight:normal;font-size:14.66666698px;font-family:Lato;-inkscape-font-specification:Lato-Regular;writing-mode:lr-tb;fill:#000000;fill-opacity:1;fill-rule:nonzero;stroke:none"
         transform="translate(0,14.476)"><tspan
           id="tspan242"
           y="0"
           x="0 9.9661255 13.718079 17.470032 20.29866 28.447433 34.808167 42.487946 48.394348 54.755081 57.58371 64.428101 68.180054 75.610687 79.36264 91.395279 99.075058 107.26781 110.09644 115.56316 123.71193 131.20103 138.70494 141.53357 152.76012 160.4399 166.3463 174.02608 176.85471 184.09448 191.48114 199.57129 207.25107 213.15747 218.62419 224.98492">All users claimed they were experts.</tspan></text>
</g><g
       transform="matrix(0.75,0,0,0.75,72,681.23462)"
       id="g246"><text
         id="text250"
         style="font-variant:normal;font-weight:bold;font-size:14.66666698px;font-family:Lato;-inkscape-font-specification:Lato-Bold;writing-mode:lr-tb;fill:#000000;fill-opacity:1;fill-rule:nonzero;stroke:none"
         transform="translate(0,14.476)"><tspan
           id="tspan248"
           y="0"
           x="0 8.5005188 11.798141 14.62677 29.96434 38.29631 45.968765 51.640671 54.469299 62.823257 66.795059 75.149017 77.977646 85.554657 93.886627 102.2186 105.04723 113.3792 121.71117 127.38307 131.35487 138.34583 146.17949 149.00812 157.81642 163.80342 170.20813 175.88004 178.70866 186.38112 194.73508 203.06705 211.39902 217.07092 219.89955 225.57146 233.90343 241.73709 244.56572 248.53752 256.86951 262.54141 270.37506 276.36206 281.49902 289.17148 296.16241 303.99609">2. What did you notice ﬁrst about the interface?</tspan></text>
</g></g></svg>